<?xml version="1.0" encoding="UTF-8" standalone="no"?>
<!-- Created with Inkscape (http://www.inkscape.org/) -->

<svg
   width="180"
   height="180"
   viewBox="0 0 47.625 47.625"
   version="1.1"
   id="svg1"
   sodipodi:docname="icon.svg"
   inkscape:version="1.3.2 (091e20e, 2023-11-25, custom)"
   xmlns:inkscape="http://www.inkscape.org/namespaces/inkscape"
   xmlns:sodipodi="http://sodipodi.sourceforge.net/DTD/sodipodi-0.dtd"
   xmlns="http://www.w3.org/2000/svg"
   xmlns:svg="http://www.w3.org/2000/svg">
  <sodipodi:namedview
     id="namedview1"
     pagecolor="#ffffff"
     bordercolor="#000000"
     borderopacity="0.25"
     inkscape:showpageshadow="2"
     inkscape:pageopacity="0.0"
     inkscape:pagecheckerboard="0"
     inkscape:deskcolor="#d1d1d1"
     inkscape:zoom="4.1423817"
     inkscape:cx="103.2015"
     inkscape:cy="103.2015"
     inkscape:window-width="1920"
     inkscape:window-height="1111"
     inkscape:window-x="-9"
     inkscape:window-y="-9"
     inkscape:window-maximized="1"
     inkscape:current-layer="svg1" />
  <defs
     id="defs1" />
  <g
     id="layer1"
     transform="matrix(0.87164322,0,0,0.87208068,0.65829575,0.51888996)">
    <g
       id="g6"
       style="display:inline">
      <path
         id="path3"
         style="fill:#000000;stroke-width:0.257746"
         d="M 5.1475136,19.832856 A 19.999842,20.439145 45 0 0 -0.29888536,29.955742 19.999842,20.439145 45 0 0 15.191836,53.649133 l 1.064433,-4.946522 a 14.999882,15.329359 45 0 1 -0.118027,-0.01425 L 19.339943,33.798733 16.134954,48.687995 A 14.999882,15.329359 45 0 1 4.5171856,30.917494 14.999882,15.329359 45 0 1 22.543474,18.90947 a 14.999882,15.329359 45 0 1 11.619961,17.769042 14.999882,15.329359 45 0 1 -2.32984,5.434339 l 2.48404,0.606576 2.67807,0.653715 a 19.999842,20.439145 45 0 0 2.2341,-5.736165 19.999842,20.439145 45 0 0 -3.54262,-16.251506 L 53.067425,4.0052313 c 1.07139,-1.071387 1.08929,-2.777456 0.0409,-3.82581656 -1.04836,-1.048361 -2.75406,-1.030096 -3.82545,0.04129 L 31.907755,17.59583 a 19.999842,20.439145 45 0 0 -8.17161,-3.650789 19.999842,20.439145 45 0 0 -18.5886514,5.887814 z m 5.8943894,6.705594 a 19.999842,20.439145 45 0 0 -3.060288,4.176973 l 2.678072,0.653715 2.484041,0.606576 A 14.999882,15.329359 45 0 1 17.302796,27.8203 L 16.76857,25.385955 16.15359,22.582182 a 19.999842,20.439145 45 0 0 -5.111687,3.956268 z m 5.21802,22.164892 -1.063335,4.946888 a 19.999842,20.439145 45 0 0 13.627147,-2.143847 l -0.61498,-2.803772 -0.53423,-2.434346 a 14.999882,15.329359 45 0 1 -11.414602,2.435077 z" />
    </g>
  </g>
</svg>
